# xmcd
#
# Track frame offsets: 
#        150
#        13964
#        30008
#        46710
#        65544
#        83077
#        98743
#        119554
#        135817
#        149543
#        170196
#        187980
#        205876
#        225352
#        239874
#        254140
#        270490
#        284225
#        299887
#
# Disc length: 4216 seconds
#
# Revision: 0
# Processed by: cddbd v1.5.2PL0 Copyright (c) Steve Scherf et al.
# Submitted via: ExactAudioCopy v0.95a4
#
DISCID=24107613
DTITLE=Frankie Miller - Double Take
DYEAR=2016
DGENRE=Blues
TTITLE0=Black Mail 
TTITLE1=Where Do The Guilty Go?
TTITLE2=Way Past Midnight
TTITLE3=True Love
TTITLE4=Kiss Her For Me
TTITLE5=Gold Shoes
TTITLE6=Sending Me Angels
TTITLE7=Jezebel Jones
TTITLE8=When It's Rocking
TTITLE9=Beginner At The Blues
TTITLE10=To Be With You Again
TTITLE11=I Want To Spend My Life With You
TTITLE12=The Ghost
TTITLE13=It Gets Me Blue
TTITLE14=Out On The Water
TTITLE15=It's A Long Way Home
TTITLE16=I'm Missing You
TTITLE17=I Never Want To Lose You
TTITLE18=I Do
EXTD=
EXTT0=
EXTT1=
EXTT2=
EXTT3=
EXTT4=
EXTT5=
EXTT6=
EXTT7=
EXTT8=
EXTT9=
EXTT10=
EXTT11=
EXTT12=
EXTT13=
EXTT14=
EXTT15=
EXTT16=
EXTT17=
EXTT18=
PLAYORDER=
